<?xml version="1.0" encoding="utf-8"?>
<!-- Generator: Adobe Illustrator 16.0.0, SVG Export Plug-In . SVG Version: 6.00 Build 0)  -->
<!DOCTYPE svg PUBLIC "-//W3C//DTD SVG 1.1//EN" "http://www.w3.org/Graphics/SVG/1.1/DTD/svg11.dtd">
<svg version="1.1" id="Layer_1" xmlns="http://www.w3.org/2000/svg" xmlns:xlink="http://www.w3.org/1999/xlink" x="0px" y="0px"
	 width="387.165px" height="51.333px" viewBox="0 0 387.165 51.333" enable-background="new 0 0 387.165 51.333"
	 xml:space="preserve">
<path fill="#004BFA" d="M69.231,29.334c0-8.768,6.846-15.793,16.214-15.793c7.566,0,14.473,4.504,15.313,14.111
	c0.179,1.441-0.662,2.222-2.103,2.222h-23.3c-0.181,5.585,4.443,9.668,10.99,9.668c2.941,0,5.584-0.78,8.166-2.521
	c1.141-0.721,2.102-0.661,3.063,0.3l0.421,0.48c0.96,1.021,0.96,2.282-0.421,3.423c-3.482,2.822-7.507,3.724-11.289,3.724
	C75.716,44.947,69.231,37.921,69.231,29.334 M94.632,25.311c-1.561-5.345-5.764-6.485-9.066-6.485c-3.483,0-7.807,1.381-9.668,6.485
	H94.632z"/>
<path fill="#004BFA" d="M109.646,29.214c0-8.647,5.945-15.673,14.894-15.673c4.022,0,7.925,1.381,10.748,5.404v-2.583
	c0-1.381,0.841-2.161,2.222-2.161h1.802c1.381,0,2.161,0.78,2.161,2.161v25.763c0,1.382-0.78,2.161-2.161,2.161h-1.802
	c-1.381,0-2.222-0.779-2.222-2.161v-2.583c-2.823,4.023-6.726,5.404-10.748,5.404C115.591,44.946,109.646,37.86,109.646,29.214
	 M135.408,29.214c-0.061-5.945-4.084-10.329-10.028-10.329c-6.066,0-9.549,4.744-9.549,10.329c0,5.645,3.482,10.328,9.549,10.328
	C131.324,39.542,135.348,35.159,135.408,29.214"/>
<path fill="#004BFA" d="M162.851,42.545l-10.029-25.882c-0.539-1.501,0.061-2.462,1.682-2.462h1.982c1.261,0,2.041,0.54,2.522,1.741
	l7.986,21.559l7.987-21.559c0.479-1.201,1.261-1.741,2.521-1.741h1.981c1.622,0,2.223,0.961,1.682,2.462l-10.028,25.882
	c-0.48,1.142-1.321,1.741-2.582,1.741h-3.123C164.172,44.286,163.331,43.687,162.851,42.545"/>
<path fill="#004BFA" d="M189.032,29.334c0-8.768,6.846-15.793,16.215-15.793c7.566,0,14.473,4.504,15.313,14.111
	c0.181,1.441-0.66,2.222-2.102,2.222h-23.3c-0.18,5.585,4.444,9.668,10.989,9.668c2.943,0,5.585-0.78,8.166-2.521
	c1.142-0.721,2.104-0.661,3.063,0.3l0.421,0.48c0.961,1.021,0.961,2.282-0.421,3.423c-3.481,2.822-7.506,3.724-11.29,3.724
	C195.519,44.947,189.032,37.921,189.032,29.334 M214.436,25.311c-1.562-5.345-5.766-6.485-9.068-6.485
	c-3.483,0-7.807,1.381-9.669,6.485H214.436z"/>
<path fill="#004BFA" d="M231.609,42.124V16.363c0-1.382,0.841-2.162,2.222-2.162h1.801c1.383,0,2.163,0.78,2.163,2.162v3.723
	c1.321-4.203,5.164-6.545,10.028-6.545c6.665,0,11.529,4.323,11.529,13.751v14.832c0,1.383-0.841,2.162-2.222,2.162h-1.802
	c-1.381,0-2.161-0.779-2.161-2.162V27.353c0-6.186-2.823-8.407-6.006-8.407c-3.122,0-9.367,2.103-9.367,11.229v11.949
	c0,1.383-0.78,2.162-2.163,2.162h-1.801C232.45,44.286,231.609,43.507,231.609,42.124"/>
<path fill="#004BFA" d="M270.223,29.214c0-8.647,7.085-15.673,15.853-15.673c8.828,0,15.975,7.085,15.975,15.673
	c0,8.707-7.146,15.733-15.975,15.733C277.308,44.947,270.223,37.981,270.223,29.214 M295.864,29.274
	c0-5.705-4.324-10.329-9.789-10.329c-5.344,0-9.728,4.624-9.728,10.329c0,5.704,4.384,10.268,9.728,10.268
	C291.54,39.542,295.864,34.979,295.864,29.274"/>
<path fill="#004BFA" d="M314.3,34.738V19.005h-3.662c-0.781,0-1.201-0.48-1.201-1.261v-2.343c0-0.78,0.42-1.2,1.201-1.2h3.782
	l1.081-6.906c0.18-1.141,0.841-1.741,1.922-1.741h1.262c1.141,0,1.801,0.721,1.801,1.861v6.786h8.227c0.781,0,1.201,0.42,1.201,1.2
	v2.343c0,0.78-0.42,1.261-1.201,1.261h-8.227V35.1c0,3.242,1.562,4.503,3.483,4.503c1.861,0,3.542-1.081,3.542-3.242
	c0-0.24,0-0.661-0.119-1.141c-0.119-0.842,0.24-1.383,1.08-1.383h2.763c0.722,0,1.261,0.302,1.382,1.082
	c0.24,1.021,0.24,2.162,0.24,2.221c0,4.505-3.244,7.808-9.008,7.808C319.044,44.947,314.3,42.485,314.3,34.738"/>
<path fill="#004BFA" d="M340.481,29.334c0-8.768,6.847-15.793,16.215-15.793c7.566,0,14.471,4.504,15.313,14.111
	c0.18,1.441-0.661,2.222-2.102,2.222h-23.3c-0.181,5.585,4.443,9.668,10.989,9.668c2.942,0,5.584-0.78,8.166-2.521
	c1.142-0.721,2.103-0.661,3.063,0.3l0.422,0.48c0.96,1.021,0.96,2.282-0.422,3.423c-3.482,2.822-7.506,3.724-11.289,3.724
	C346.968,44.947,340.481,37.921,340.481,29.334 M365.884,25.311c-1.562-5.345-5.766-6.485-9.068-6.485
	c-3.482,0-7.806,1.381-9.667,6.485H365.884z"/>
<g>
	<path fill="#60C6F1" d="M27.06,44.055c-0.576-0.263-0.981-0.757-1.246-1.51l-9.367-25.882c-0.541-1.561,0.18-2.462,1.741-2.462
		h1.921c1.262,0,2.104,0.48,2.522,1.741l6.967,20.057L27.06,44.055z"/>
</g>
<path fill="#004BFA" d="M29.598,35.999l6.125-19.904c0.36-1.201,1.201-1.861,2.402-1.861h1.321c1.26,0,2.041,0.66,2.402,1.861
	l6.186,19.904l6.904-20.057c0.421-1.261,1.262-1.741,2.522-1.741h1.922c1.621,0,2.282,0.901,1.741,2.462l-9.309,25.882
	c-0.479,1.261-1.261,1.741-2.521,1.741h-1.981c-1.262,0-2.042-0.601-2.462-1.801l-6.065-18.736L32.72,42.485
	c-0.36,1.2-1.201,1.801-2.462,1.801h-1.981c-0.471,0-0.874-0.074-1.217-0.231L29.598,35.999z"/>
</svg>
