<?xml version="1.0" encoding="utf-8"?>
<!-- Generator: Adobe Illustrator 21.1.0, SVG Export Plug-In . SVG Version: 6.00 Build 0)  -->
<svg version="1.1" id="Layer_1" xmlns="http://www.w3.org/2000/svg" xmlns:xlink="http://www.w3.org/1999/xlink" x="0px" y="0px"
	 viewBox="0 0 45 30.1" style="enable-background:new 0 0 45 30.1;" xml:space="preserve">
<style type="text/css">
	.st0{fill:#60C6F1;}
	.st1{fill:#004BFA;}
</style>
<g>
	<path class="st0" d="M10.8,29.9c-0.6-0.3-1-0.8-1.2-1.5L0.2,2.5C-0.4,0.9,0.4,0,1.9,0h1.9c1.3,0,2.1,0.5,2.5,1.7l7,20.1L10.8,29.9z
		"/>
</g>
<path class="st1" d="M13.3,21.8l6.1-19.9C19.8,0.7,20.7,0,21.9,0h1.3c1.3,0,2,0.7,2.4,1.9l6.2,19.9l6.9-20.1C39.1,0.5,39.9,0,41.2,0
	h1.9c1.6,0,2.3,0.9,1.7,2.5l-9.3,25.9c-0.5,1.3-1.3,1.7-2.5,1.7h-2c-1.3,0-2-0.6-2.5-1.8L22.5,9.5l-6.1,18.7
	c-0.4,1.2-1.2,1.8-2.5,1.8h-2c-0.5,0-0.9-0.1-1.2-0.2L13.3,21.8z"/>
</svg>
